{
  "asset": {
    "version": "2.0",
    "generator": "fire_engine cloth sample"
  },
  "scene": 0,
  "scenes": [
    {
      "nodes": [
        0
      ]
    }
  ],
  "nodes": [
    {
      "mesh": 0,
      "name": "ClothSheet",
      "extras": {
        "Cloth": {
          "Pin": "TopCorners",
          "Compliance": 0.0,
          "BendCompliance": 5e-05
        }
      }
    }
  ],
  "meshes": [
    {
      "name": "ClothSheet",
      "primitives": [
        {
          "attributes": {
            "POSITION": 0,
            "NORMAL": 1,
            "TEXCOORD_0": 2
          },
          "indices": 3,
          "material": 0
        }
      ]
    }
  ],
  "materials": [
    {
      "name": "ClothSheet",
      "pbrMetallicRoughness": {
        "baseColorFactor": [
          0.2,
          0.45,
          0.85,
          1.0
        ],
        "metallicFactor": 0.0,
        "roughnessFactor": 0.85
      },
      "doubleSided": true
    }
  ],
  "buffers": [
    {
      "byteLength": 5144,
      "uri": "data:application/octet-stream;base64,"
    }
  ],
  "bufferViews": [
    {
      "buffer": 0,
      "byteOffset": 0,
      "byteLength": 1200,
      "target": 34962
    },
    {
      "buffer": 0,
      "byteOffset": 1200,
      "byteLength": 1200,
      "target": 34962
    },
    {
      "buffer": 0,
      "byteOffset": 2400,
      "byteLength": 800,
      "target": 34962
    },
    {
      "buffer": 0,
      "byteOffset": 3200,
      "byteLength": 1944,
      "target": 34963
    }
  ],
  "accessors": [
    {
      "bufferView": 0,
      "componentType": 5126,
      "count": 100,
      "type": "VEC3",
      "min": [
        -0.54,
        2.3,
        -0.54
      ],
      "max": [
        0.54,
        2.3,
        0.54
      ]
    },
    {
      "bufferView": 1,
      "componentType": 5126,
      "count": 100,
      "type": "VEC3"
    },
    {
      "bufferView": 2,
      "componentType": 5126,
      "count": 100,
      "type": "VEC2"
    },
    {
      "bufferView": 3,
      "componentType": 5125,
      "count": 486,
      "type": "SCALAR"
    }
  ]
}