{
  "asset": {
    "version": "2.0",
    "generator": "fireEngine physics_demos generate.py"
  },
  "scene": 0,
  "scenes": [
    {
      "name": "Scene",
      "nodes": [
        0,
        1,
        2,
        3,
        4
      ]
    }
  ],
  "nodes": [
    {
      "name": "Floor",
      "mesh": 0,
      "translation": [
        0.0,
        -0.25,
        0.0
      ],
      "extras": {
        "Physics": {
          "BodyType": "Static",
          "Shape": "Box",
          "Restitution": 0.0,
          "Friction": 0.5,
          "HalfExtents": [
            6.0,
            0.25,
            6.0
          ]
        }
      }
    },
    {
      "name": "Sphere_r00",
      "mesh": 1,
      "translation": [
        -2.5,
        2.0,
        0.0
      ],
      "extras": {
        "Physics": {
          "BodyType": "Dynamic",
          "Shape": "Sphere",
          "Mass": 1.0,
          "Restitution": 0.0,
          "Friction": 0.3,
          "Radius": 0.5
        }
      }
    },
    {
      "name": "Sphere_r50",
      "mesh": 2,
      "translation": [
        0.0,
        2.0,
        0.0
      ],
      "extras": {
        "Physics": {
          "BodyType": "Dynamic",
          "Shape": "Sphere",
          "Mass": 1.0,
          "Restitution": 0.5,
          "Friction": 0.3,
          "Radius": 0.5
        }
      }
    },
    {
      "name": "Sphere_r90",
      "mesh": 3,
      "translation": [
        2.5,
        2.0,
        0.0
      ],
      "extras": {
        "Physics": {
          "BodyType": "Dynamic",
          "Shape": "Sphere",
          "Mass": 1.0,
          "Restitution": 0.9,
          "Friction": 0.3,
          "Radius": 0.5
        }
      }
    },
    {
      "name": "Camera",
      "camera": 0,
      "translation": [
        0.0,
        3.5,
        9.0
      ],
      "rotation": [
        -0.12477422427683947,
        0.0,
        0.0,
        0.9921851606207951
      ]
    }
  ],
  "meshes": [
    {
      "name": "Floor",
      "primitives": [
        {
          "attributes": {
            "POSITION": 0,
            "NORMAL": 1
          },
          "indices": 2,
          "material": 0
        }
      ]
    },
    {
      "name": "Sphere_r00",
      "primitives": [
        {
          "attributes": {
            "POSITION": 3,
            "NORMAL": 4
          },
          "indices": 5,
          "material": 1
        }
      ]
    },
    {
      "name": "Sphere_r50",
      "primitives": [
        {
          "attributes": {
            "POSITION": 6,
            "NORMAL": 7
          },
          "indices": 8,
          "material": 2
        }
      ]
    },
    {
      "name": "Sphere_r90",
      "primitives": [
        {
          "attributes": {
            "POSITION": 9,
            "NORMAL": 10
          },
          "indices": 11,
          "material": 3
        }
      ]
    }
  ],
  "materials": [
    {
      "name": "Mat0",
      "doubleSided": true,
      "pbrMetallicRoughness": {
        "baseColorFactor": [
          0.45,
          0.45,
          0.48,
          1.0
        ],
        "metallicFactor": 0.0,
        "roughnessFactor": 0.6
      }
    },
    {
      "name": "Mat1",
      "doubleSided": true,
      "pbrMetallicRoughness": {
        "baseColorFactor": [
          0.3,
          0.3,
          0.34,
          1.0
        ],
        "metallicFactor": 0.0,
        "roughnessFactor": 0.6
      }
    },
    {
      "name": "Mat2",
      "doubleSided": true,
      "pbrMetallicRoughness": {
        "baseColorFactor": [
          0.3,
          0.55,
          0.85,
          1.0
        ],
        "metallicFactor": 0.0,
        "roughnessFactor": 0.6
      }
    },
    {
      "name": "Mat3",
      "doubleSided": true,
      "pbrMetallicRoughness": {
        "baseColorFactor": [
          0.85,
          0.55,
          0.2,
          1.0
        ],
        "metallicFactor": 0.0,
        "roughnessFactor": 0.6
      }
    }
  ],
  "accessors": [
    {
      "bufferView": 0,
      "componentType": 5126,
      "count": 24,
      "type": "VEC3",
      "min": [
        -6.0,
        -0.25,
        -6.0
      ],
      "max": [
        6.0,
        0.25,
        6.0
      ]
    },
    {
      "bufferView": 1,
      "componentType": 5126,
      "count": 24,
      "type": "VEC3"
    },
    {
      "bufferView": 2,
      "componentType": 5123,
      "count": 36,
      "type": "SCALAR"
    },
    {
      "bufferView": 3,
      "componentType": 5126,
      "count": 425,
      "type": "VEC3",
      "min": [
        -0.5,
        -0.5,
        -0.5
      ],
      "max": [
        0.5,
        0.5,
        0.5
      ]
    },
    {
      "bufferView": 4,
      "componentType": 5126,
      "count": 425,
      "type": "VEC3"
    },
    {
      "bufferView": 5,
      "componentType": 5123,
      "count": 2304,
      "type": "SCALAR"
    },
    {
      "bufferView": 6,
      "componentType": 5126,
      "count": 425,
      "type": "VEC3",
      "min": [
        -0.5,
        -0.5,
        -0.5
      ],
      "max": [
        0.5,
        0.5,
        0.5
      ]
    },
    {
      "bufferView": 7,
      "componentType": 5126,
      "count": 425,
      "type": "VEC3"
    },
    {
      "bufferView": 8,
      "componentType": 5123,
      "count": 2304,
      "type": "SCALAR"
    },
    {
      "bufferView": 9,
      "componentType": 5126,
      "count": 425,
      "type": "VEC3",
      "min": [
        -0.5,
        -0.5,
        -0.5
      ],
      "max": [
        0.5,
        0.5,
        0.5
      ]
    },
    {
      "bufferView": 10,
      "componentType": 5126,
      "count": 425,
      "type": "VEC3"
    },
    {
      "bufferView": 11,
      "componentType": 5123,
      "count": 2304,
      "type": "SCALAR"
    }
  ],
  "bufferViews": [
    {
      "buffer": 0,
      "byteOffset": 0,
      "byteLength": 288,
      "target": 34962
    },
    {
      "buffer": 0,
      "byteOffset": 288,
      "byteLength": 288,
      "target": 34962
    },
    {
      "buffer": 0,
      "byteOffset": 576,
      "byteLength": 72,
      "target": 34963
    },
    {
      "buffer": 0,
      "byteOffset": 648,
      "byteLength": 5100,
      "target": 34962
    },
    {
      "buffer": 0,
      "byteOffset": 5748,
      "byteLength": 5100,
      "target": 34962
    },
    {
      "buffer": 0,
      "byteOffset": 10848,
      "byteLength": 4608,
      "target": 34963
    },
    {
      "buffer": 0,
      "byteOffset": 15456,
      "byteLength": 5100,
      "target": 34962
    },
    {
      "buffer": 0,
      "byteOffset": 20556,
      "byteLength": 5100,
      "target": 34962
    },
    {
      "buffer": 0,
      "byteOffset": 25656,
      "byteLength": 4608,
      "target": 34963
    },
    {
      "buffer": 0,
      "byteOffset": 30264,
      "byteLength": 5100,
      "target": 34962
    },
    {
      "buffer": 0,
      "byteOffset": 35364,
      "byteLength": 5100,
      "target": 34962
    },
    {
      "buffer": 0,
      "byteOffset": 40464,
      "byteLength": 4608,
      "target": 34963
    }
  ],
  "buffers": [
    {
      "byteLength": 45072,
      "uri": "data:application/octet-stream;base64,"
    }
  ],
  "cameras": [
    {
      "name": "Camera",
      "type": "perspective",
      "perspective": {
        "yfov": 0.7,
        "znear": 0.05,
        "zfar": 500.0
      }
    }
  ]
}
