{
  "asset": {
    "version": "2.0",
    "generator": "fireEngine physics_demos generate.py"
  },
  "scene": 0,
  "scenes": [
    {
      "name": "Scene",
      "nodes": [
        0,
        1,
        2,
        3,
        4
      ]
    }
  ],
  "nodes": [
    {
      "name": "Valley",
      "mesh": 0,
      "translation": [
        0.0,
        0.0,
        0.0
      ],
      "extras": {
        "Physics": {
          "BodyType": "Static",
          "Shape": "Mesh",
          "Restitution": 0.0,
          "Friction": 0.6
        }
      }
    },
    {
      "name": "Box0",
      "mesh": 1,
      "translation": [
        -3.0,
        1.3,
        -1.5
      ],
      "extras": {
        "Physics": {
          "BodyType": "Dynamic",
          "Shape": "Box",
          "Mass": 1.0,
          "Restitution": 0.0,
          "Friction": 0.5,
          "HalfExtents": [
            0.4,
            0.4,
            0.4
          ]
        }
      }
    },
    {
      "name": "Box1",
      "mesh": 2,
      "translation": [
        3.0,
        1.3,
        1.5
      ],
      "extras": {
        "Physics": {
          "BodyType": "Dynamic",
          "Shape": "Box",
          "Mass": 1.0,
          "Restitution": 0.0,
          "Friction": 0.5,
          "HalfExtents": [
            0.4,
            0.4,
            0.4
          ]
        }
      }
    },
    {
      "name": "Ball",
      "mesh": 3,
      "translation": [
        0.0,
        1.3,
        0.0
      ],
      "extras": {
        "Physics": {
          "BodyType": "Dynamic",
          "Shape": "Sphere",
          "Mass": 1.0,
          "Restitution": 0.1,
          "Friction": 0.4,
          "Radius": 0.4
        }
      }
    },
    {
      "name": "Camera",
      "camera": 0,
      "translation": [
        9.0,
        5.0,
        9.0
      ],
      "rotation": [
        -0.15940064116612732,
        0.3769445436079832,
        0.06602590742197702,
        0.9100246294409297
      ]
    }
  ],
  "meshes": [
    {
      "name": "Valley",
      "primitives": [
        {
          "attributes": {
            "POSITION": 0,
            "NORMAL": 1
          },
          "indices": 2,
          "material": 0
        }
      ]
    },
    {
      "name": "Box0",
      "primitives": [
        {
          "attributes": {
            "POSITION": 3,
            "NORMAL": 4
          },
          "indices": 5,
          "material": 1
        }
      ]
    },
    {
      "name": "Box1",
      "primitives": [
        {
          "attributes": {
            "POSITION": 6,
            "NORMAL": 7
          },
          "indices": 8,
          "material": 2
        }
      ]
    },
    {
      "name": "Ball",
      "primitives": [
        {
          "attributes": {
            "POSITION": 9,
            "NORMAL": 10
          },
          "indices": 11,
          "material": 3
        }
      ]
    }
  ],
  "materials": [
    {
      "name": "Mat0",
      "doubleSided": true,
      "pbrMetallicRoughness": {
        "baseColorFactor": [
          0.4,
          0.42,
          0.48,
          1.0
        ],
        "metallicFactor": 0.0,
        "roughnessFactor": 0.6
      }
    },
    {
      "name": "Mat1",
      "doubleSided": true,
      "pbrMetallicRoughness": {
        "baseColorFactor": [
          0.8,
          0.4,
          0.3,
          1.0
        ],
        "metallicFactor": 0.0,
        "roughnessFactor": 0.6
      }
    },
    {
      "name": "Mat2",
      "doubleSided": true,
      "pbrMetallicRoughness": {
        "baseColorFactor": [
          0.35,
          0.55,
          0.8,
          1.0
        ],
        "metallicFactor": 0.0,
        "roughnessFactor": 0.6
      }
    },
    {
      "name": "Mat3",
      "doubleSided": true,
      "pbrMetallicRoughness": {
        "baseColorFactor": [
          0.8,
          0.65,
          0.3,
          1.0
        ],
        "metallicFactor": 0.0,
        "roughnessFactor": 0.6
      }
    }
  ],
  "accessors": [
    {
      "bufferView": 0,
      "componentType": 5126,
      "count": 18,
      "type": "VEC3",
      "min": [
        -7.0,
        0.0,
        -5.0
      ],
      "max": [
        7.0,
        1.5,
        5.0
      ]
    },
    {
      "bufferView": 1,
      "componentType": 5126,
      "count": 18,
      "type": "VEC3"
    },
    {
      "bufferView": 2,
      "componentType": 5123,
      "count": 18,
      "type": "SCALAR"
    },
    {
      "bufferView": 3,
      "componentType": 5126,
      "count": 24,
      "type": "VEC3",
      "min": [
        -0.4,
        -0.4,
        -0.4
      ],
      "max": [
        0.4,
        0.4,
        0.4
      ]
    },
    {
      "bufferView": 4,
      "componentType": 5126,
      "count": 24,
      "type": "VEC3"
    },
    {
      "bufferView": 5,
      "componentType": 5123,
      "count": 36,
      "type": "SCALAR"
    },
    {
      "bufferView": 6,
      "componentType": 5126,
      "count": 24,
      "type": "VEC3",
      "min": [
        -0.4,
        -0.4,
        -0.4
      ],
      "max": [
        0.4,
        0.4,
        0.4
      ]
    },
    {
      "bufferView": 7,
      "componentType": 5126,
      "count": 24,
      "type": "VEC3"
    },
    {
      "bufferView": 8,
      "componentType": 5123,
      "count": 36,
      "type": "SCALAR"
    },
    {
      "bufferView": 9,
      "componentType": 5126,
      "count": 425,
      "type": "VEC3",
      "min": [
        -0.4,
        -0.4,
        -0.4
      ],
      "max": [
        0.4,
        0.4,
        0.4
      ]
    },
    {
      "bufferView": 10,
      "componentType": 5126,
      "count": 425,
      "type": "VEC3"
    },
    {
      "bufferView": 11,
      "componentType": 5123,
      "count": 2304,
      "type": "SCALAR"
    }
  ],
  "bufferViews": [
    {
      "buffer": 0,
      "byteOffset": 0,
      "byteLength": 216,
      "target": 34962
    },
    {
      "buffer": 0,
      "byteOffset": 216,
      "byteLength": 216,
      "target": 34962
    },
    {
      "buffer": 0,
      "byteOffset": 432,
      "byteLength": 36,
      "target": 34963
    },
    {
      "buffer": 0,
      "byteOffset": 468,
      "byteLength": 288,
      "target": 34962
    },
    {
      "buffer": 0,
      "byteOffset": 756,
      "byteLength": 288,
      "target": 34962
    },
    {
      "buffer": 0,
      "byteOffset": 1044,
      "byteLength": 72,
      "target": 34963
    },
    {
      "buffer": 0,
      "byteOffset": 1116,
      "byteLength": 288,
      "target": 34962
    },
    {
      "buffer": 0,
      "byteOffset": 1404,
      "byteLength": 288,
      "target": 34962
    },
    {
      "buffer": 0,
      "byteOffset": 1692,
      "byteLength": 72,
      "target": 34963
    },
    {
      "buffer": 0,
      "byteOffset": 1764,
      "byteLength": 5100,
      "target": 34962
    },
    {
      "buffer": 0,
      "byteOffset": 6864,
      "byteLength": 5100,
      "target": 34962
    },
    {
      "buffer": 0,
      "byteOffset": 11964,
      "byteLength": 4608,
      "target": 34963
    }
  ],
  "buffers": [
    {
      "byteLength": 16572,
      "uri": "data:application/octet-stream;base64,"
    }
  ],
  "cameras": [
    {
      "name": "Camera",
      "type": "perspective",
      "perspective": {
        "yfov": 0.7,
        "znear": 0.05,
        "zfar": 500.0
      }
    }
  ]
}
