{
  "asset": {
    "version": "2.0",
    "generator": "fireEngine shadow_lod generate.py"
  },
  "scene": 0,
  "scenes": [
    {
      "name": "Scene",
      "nodes": [
        0,
        1,
        2,
        3
      ]
    }
  ],
  "nodes": [
    {
      "name": "Receiver_Floor",
      "mesh": 0,
      "translation": [
        0.0,
        -0.25,
        0.0
      ],
      "extras": {
        "Shadow": {
          "Casts": false
        }
      }
    },
    {
      "name": "DepthClip_Caster",
      "mesh": 1,
      "translation": [
        24.784,
        28.855,
        18.704
      ]
    },
    {
      "name": "Sun",
      "rotation": [
        -0.4249625303318254,
        0.3354967344724938,
        0.0,
        0.8407429981702289
      ],
      "extensions": {
        "KHR_lights_punctual": {
          "light": 0
        }
      }
    },
    {
      "name": "Camera",
      "camera": 0,
      "translation": [
        13.0,
        7.5,
        17.0
      ],
      "rotation": [
        -0.13502949057731012,
        0.30455539054188985,
        0.043662339515153005,
        0.9418633928943053
      ]
    }
  ],
  "meshes": [
    {
      "name": "Receiver_Floor",
      "primitives": [
        {
          "attributes": {
            "POSITION": 0,
            "NORMAL": 1
          },
          "indices": 2,
          "material": 0
        }
      ]
    },
    {
      "name": "DepthClip_Caster",
      "primitives": [
        {
          "attributes": {
            "POSITION": 3,
            "NORMAL": 4
          },
          "indices": 5,
          "material": 1
        }
      ]
    }
  ],
  "materials": [
    {
      "name": "Mat0",
      "doubleSided": true,
      "pbrMetallicRoughness": {
        "baseColorFactor": [
          0.62,
          0.62,
          0.64,
          1.0
        ],
        "metallicFactor": 0.0,
        "roughnessFactor": 0.6
      }
    },
    {
      "name": "Mat1",
      "doubleSided": true,
      "pbrMetallicRoughness": {
        "baseColorFactor": [
          0.85,
          0.5,
          0.25,
          1.0
        ],
        "metallicFactor": 0.0,
        "roughnessFactor": 0.6
      }
    }
  ],
  "accessors": [
    {
      "bufferView": 0,
      "componentType": 5126,
      "count": 24,
      "type": "VEC3",
      "min": [
        -24.0,
        -0.25,
        -24.0
      ],
      "max": [
        24.0,
        0.25,
        24.0
      ]
    },
    {
      "bufferView": 1,
      "componentType": 5126,
      "count": 24,
      "type": "VEC3"
    },
    {
      "bufferView": 2,
      "componentType": 5123,
      "count": 36,
      "type": "SCALAR"
    },
    {
      "bufferView": 3,
      "componentType": 5126,
      "count": 425,
      "type": "VEC3",
      "min": [
        -2.0,
        -2.0,
        -2.0
      ],
      "max": [
        2.0,
        2.0,
        2.0
      ]
    },
    {
      "bufferView": 4,
      "componentType": 5126,
      "count": 425,
      "type": "VEC3"
    },
    {
      "bufferView": 5,
      "componentType": 5123,
      "count": 2304,
      "type": "SCALAR"
    }
  ],
  "bufferViews": [
    {
      "buffer": 0,
      "byteOffset": 0,
      "byteLength": 288,
      "target": 34962
    },
    {
      "buffer": 0,
      "byteOffset": 288,
      "byteLength": 288,
      "target": 34962
    },
    {
      "buffer": 0,
      "byteOffset": 576,
      "byteLength": 72,
      "target": 34963
    },
    {
      "buffer": 0,
      "byteOffset": 648,
      "byteLength": 5100,
      "target": 34962
    },
    {
      "buffer": 0,
      "byteOffset": 5748,
      "byteLength": 5100,
      "target": 34962
    },
    {
      "buffer": 0,
      "byteOffset": 10848,
      "byteLength": 4608,
      "target": 34963
    }
  ],
  "buffers": [
    {
      "byteLength": 15456,
      "uri": "data:application/octet-stream;base64,"
    }
  ],
  "cameras": [
    {
      "name": "Camera",
      "type": "perspective",
      "perspective": {
        "yfov": 0.7,
        "znear": 0.05,
        "zfar": 500.0
      }
    }
  ],
  "extensionsUsed": [
    "KHR_lights_punctual"
  ],
  "extensions": {
    "KHR_lights_punctual": {
      "lights": [
        {
          "name": "Sun",
          "type": "directional",
          "color": [
            1.0,
            0.97,
            0.9
          ],
          "intensity": 1.35
        }
      ]
    }
  }
}
